<?xml version="1.0" standalone="no"?>
<svg xmlns:xlink="http://www.w3.org/1999/xlink" id="wave" style="transform:rotate(0deg); transition: 0.3s" viewBox="0 0 1440 310" version="1.1" xmlns="http://www.w3.org/2000/svg"><defs><linearGradient id="sw-gradient-0" x1="0" x2="0" y1="1" y2="0"><stop stop-color="rgba(56, 142, 60, 0.49)" offset="0%"/><stop stop-color="rgba(227.963, 224.13, 215.656, 0.52)" offset="100%"/></linearGradient></defs><path style="transform:translate(0, 0px); opacity:1" fill="url(#sw-gradient-0)" d="M0,0L21.8,41.3C43.6,83,87,165,131,175.7C174.5,186,218,124,262,103.3C305.5,83,349,103,393,129.2C436.4,155,480,186,524,196.3C567.3,207,611,196,655,191.2C698.2,186,742,186,785,201.5C829.1,217,873,248,916,253.2C960,258,1004,238,1047,206.7C1090.9,176,1135,134,1178,144.7C1221.8,155,1265,217,1309,232.5C1352.7,248,1396,217,1440,196.3C1483.6,176,1527,165,1571,165.3C1614.5,165,1658,176,1702,196.3C1745.5,217,1789,248,1833,227.3C1876.4,207,1920,134,1964,108.5C2007.3,83,2051,103,2095,98.2C2138.2,93,2182,62,2225,56.8C2269.1,52,2313,72,2356,82.7C2400,93,2444,93,2487,98.2C2530.9,103,2575,114,2618,134.3C2661.8,155,2705,186,2749,201.5C2792.7,217,2836,217,2880,196.3C2923.6,176,2967,134,3011,103.3C3054.5,72,3098,52,3120,41.3L3141.8,31L3141.8,310L3120,310C3098.2,310,3055,310,3011,310C2967.3,310,2924,310,2880,310C2836.4,310,2793,310,2749,310C2705.5,310,2662,310,2618,310C2574.5,310,2531,310,2487,310C2443.6,310,2400,310,2356,310C2312.7,310,2269,310,2225,310C2181.8,310,2138,310,2095,310C2050.9,310,2007,310,1964,310C1920,310,1876,310,1833,310C1789.1,310,1745,310,1702,310C1658.2,310,1615,310,1571,310C1527.3,310,1484,310,1440,310C1396.4,310,1353,310,1309,310C1265.5,310,1222,310,1178,310C1134.5,310,1091,310,1047,310C1003.6,310,960,310,916,310C872.7,310,829,310,785,310C741.8,310,698,310,655,310C610.9,310,567,310,524,310C480,310,436,310,393,310C349.1,310,305,310,262,310C218.2,310,175,310,131,310C87.3,310,44,310,22,310L0,310Z"/></svg>